<svg width="133" height="25" viewBox="0 0 133 25" fill="none" xmlns="http://www.w3.org/2000/svg">
<path d="M6.976 8V8.672C6.44267 8.672 5.97333 8.71467 5.568 8.8C5.16267 8.864 4.896 9.07734 4.768 9.44C4.64 9.80267 4.736 10.4427 5.056 11.36L8.384 20.896L8.16 20.864L12.864 7.872L13.504 8.128L7.648 24.64C7.56267 24.64 7.47733 24.64 7.392 24.64C7.30667 24.64 7.21067 24.64 7.104 24.64L1.856 10.464C1.51467 9.61067 1.17333 9.09867 0.832 8.928C0.512 8.75734 0.234667 8.672 0 8.672V8C0.426667 8.064 0.864 8.11734 1.312 8.16C1.78133 8.18134 2.28267 8.192 2.816 8.192C3.47733 8.192 4.17067 8.17067 4.896 8.128C5.64267 8.08534 6.336 8.04267 6.976 8ZM24.544 8V8.64C24.1387 8.68267 23.7547 8.864 23.392 9.184C23.0507 9.48267 22.7413 10.048 22.464 10.88L17.824 24.64C17.7387 24.64 17.6533 24.64 17.568 24.64C17.4827 24.64 17.3867 24.64 17.28 24.64L12.128 11.552L12.864 7.872C12.992 7.872 13.1093 7.872 13.216 7.872C13.344 7.872 13.472 7.872 13.6 7.872L18.592 21.088L18.336 21.28L21.504 11.648C21.7387 10.9227 21.824 10.3573 21.76 9.952C21.7173 9.52534 21.504 9.216 21.12 9.024C20.7573 8.81067 20.192 8.68267 19.424 8.64V8C19.808 8.02134 20.1387 8.04267 20.416 8.064C20.6933 8.064 20.96 8.07467 21.216 8.096C21.4933 8.096 21.792 8.096 22.112 8.096C22.6027 8.096 23.04 8.08534 23.424 8.064C23.8293 8.04267 24.2027 8.02134 24.544 8ZM29.201 1.90735e-06C29.7557 1.90735e-06 30.2357 0.202669 30.641 0.608002C31.0463 1.01333 31.249 1.49334 31.249 2.048C31.249 2.60267 31.0463 3.08267 30.641 3.488C30.2357 3.89334 29.7557 4.096 29.201 4.096C28.6463 4.096 28.1663 3.89334 27.761 3.488C27.3557 3.08267 27.153 2.60267 27.153 2.048C27.153 1.49334 27.3557 1.01333 27.761 0.608002C28.1663 0.202669 28.6463 1.90735e-06 29.201 1.90735e-06ZM30.865 7.648V21.504C30.865 22.4 31.0463 23.008 31.409 23.328C31.793 23.648 32.4223 23.808 33.297 23.808V24.48C32.9343 24.4587 32.3797 24.4373 31.633 24.416C30.9077 24.3733 30.1717 24.352 29.425 24.352C28.6997 24.352 27.9637 24.3733 27.217 24.416C26.4703 24.4373 25.9157 24.4587 25.553 24.48V23.808C26.4277 23.808 27.0463 23.648 27.409 23.328C27.793 23.008 27.985 22.4 27.985 21.504V11.488C27.985 10.528 27.8143 9.824 27.473 9.376C27.1317 8.90667 26.4917 8.672 25.553 8.672V8C26.2357 8.064 26.897 8.096 27.537 8.096C28.1557 8.096 28.7423 8.064 29.297 8C29.873 7.91467 30.3957 7.79734 30.865 7.648ZM45.68 7.552C46.4907 7.552 47.1627 7.65867 47.696 7.872C48.2507 8.08534 48.7093 8.384 49.072 8.768C49.4773 9.19467 49.7653 9.728 49.936 10.368C50.1067 11.008 50.192 11.872 50.192 12.96V21.504C50.192 22.4 50.3733 23.008 50.736 23.328C51.12 23.648 51.7493 23.808 52.624 23.808V24.48C52.2613 24.4587 51.7067 24.4373 50.96 24.416C50.2133 24.3733 49.488 24.352 48.784 24.352C48.08 24.352 47.3867 24.3733 46.704 24.416C46.0427 24.4373 45.5413 24.4587 45.2 24.48V23.808C45.968 23.808 46.512 23.648 46.832 23.328C47.152 23.008 47.312 22.4 47.312 21.504V12.256C47.312 11.5947 47.2587 10.9867 47.152 10.432C47.0453 9.87734 46.8 9.42934 46.416 9.088C46.0533 8.74667 45.488 8.576 44.72 8.576C43.824 8.576 43.0347 8.832 42.352 9.344C41.6907 9.856 41.168 10.56 40.784 11.456C40.4213 12.3307 40.24 13.312 40.24 14.4V21.504C40.24 22.4 40.4 23.008 40.72 23.328C41.04 23.648 41.584 23.808 42.352 23.808V24.48C42.0107 24.4587 41.4987 24.4373 40.816 24.416C40.1547 24.3733 39.472 24.352 38.768 24.352C38.064 24.352 37.3387 24.3733 36.592 24.416C35.8453 24.4373 35.2907 24.4587 34.928 24.48V23.808C35.8027 23.808 36.4213 23.648 36.784 23.328C37.168 23.008 37.36 22.4 37.36 21.504V11.488C37.36 10.528 37.1893 9.824 36.848 9.376C36.5067 8.90667 35.8667 8.672 34.928 8.672V8C35.6107 8.064 36.272 8.096 36.912 8.096C37.5307 8.096 38.1173 8.064 38.672 8C39.248 7.91467 39.7707 7.79734 40.24 7.648V11.424C40.7947 9.97334 41.5627 8.97067 42.544 8.416C43.5467 7.84 44.592 7.552 45.68 7.552ZM61.7978 7.552C63.6751 7.552 65.1364 8.128 66.1818 9.28C67.2484 10.4107 67.7818 12.1813 67.7818 14.592H56.4858L56.4538 13.984H64.7098C64.7524 12.9387 64.6671 11.9787 64.4538 11.104C64.2404 10.208 63.8991 9.49334 63.4298 8.96C62.9818 8.42667 62.3951 8.16 61.6698 8.16C60.6884 8.16 59.8138 8.65067 59.0458 9.632C58.2991 10.6133 57.8511 12.1707 57.7018 14.304L57.7977 14.432C57.7551 14.752 57.7231 15.104 57.7018 15.488C57.6804 15.872 57.6698 16.256 57.6698 16.64C57.6698 18.0907 57.9044 19.3387 58.3738 20.384C58.8431 21.4293 59.4511 22.2293 60.1978 22.784C60.9658 23.3173 61.7551 23.584 62.5658 23.584C63.2058 23.584 63.8138 23.488 64.3898 23.296C64.9658 23.0827 65.4991 22.7413 65.9898 22.272C66.4804 21.8027 66.9071 21.1733 67.2698 20.384L67.9098 20.64C67.6751 21.344 67.2911 22.0267 66.7578 22.688C66.2244 23.3493 65.5524 23.8933 64.7418 24.32C63.9311 24.7253 62.9924 24.928 61.9258 24.928C60.3898 24.928 59.0671 24.576 57.9578 23.872C56.8698 23.168 56.0271 22.1973 55.4298 20.96C54.8538 19.7013 54.5658 18.2613 54.5658 16.64C54.5658 14.7627 54.8644 13.152 55.4618 11.808C56.0591 10.4427 56.9018 9.39734 57.9898 8.672C59.0778 7.92534 60.3471 7.552 61.7978 7.552ZM81.1213 8.096C80.3319 8.096 79.5533 8.43734 78.7853 9.12C78.0386 9.78134 77.3666 10.6773 76.7693 11.808C76.1719 12.9173 75.6919 14.176 75.3293 15.584C74.9879 16.9707 74.8173 18.3893 74.8173 19.84C74.8173 20.992 75.0413 21.824 75.4893 22.336C75.9586 22.8267 76.5666 23.072 77.3133 23.072C77.9746 23.072 78.6359 22.88 79.2973 22.496C79.9799 22.112 80.6626 21.408 81.3453 20.384L81.9853 20.64C81.5586 21.344 81.0039 22.0267 80.3213 22.688C79.6599 23.3493 78.8706 23.8933 77.9533 24.32C77.0573 24.7253 76.0226 24.928 74.8493 24.928C73.2919 24.928 72.0013 24.5227 70.9773 23.712C69.9533 22.9013 69.4413 21.6427 69.4413 19.936C69.4413 18.848 69.6119 17.728 69.9533 16.576C70.2946 15.424 70.7853 14.304 71.4253 13.216C72.0866 12.128 72.8759 11.1573 73.7933 10.304C74.7106 9.42934 75.7559 8.736 76.9293 8.224C78.1026 7.712 79.3826 7.456 80.7693 7.456C82.0279 7.456 83.0093 7.776 83.7133 8.416C84.4386 9.03467 84.8013 9.78134 84.8013 10.656C84.8013 11.296 84.6413 11.9147 84.3213 12.512C84.0226 13.088 83.6066 13.568 83.0733 13.952C82.5613 14.336 81.9853 14.528 81.3453 14.528C80.8119 14.528 80.3426 14.3573 79.9373 14.016C79.5319 13.6533 79.3293 13.1413 79.3293 12.48C79.3293 11.52 79.6386 10.688 80.2573 9.984C80.8973 9.28 81.6226 8.82134 82.4333 8.608C82.2626 8.43734 82.0706 8.30934 81.8573 8.224C81.6653 8.13867 81.4199 8.096 81.1213 8.096ZM95.3175 8.096C94.8908 8.096 94.4108 8.39467 93.8775 8.992C93.3655 9.58934 92.8535 10.3893 92.3415 11.392C91.8295 12.3947 91.3602 13.5147 90.9335 14.752C90.5068 15.9893 90.1655 17.2587 89.9095 18.56C89.6535 19.8613 89.5255 21.1093 89.5255 22.304C89.5255 23.0293 89.5895 23.5413 89.7175 23.84C89.8668 24.1387 90.0908 24.288 90.3895 24.288C90.7948 24.288 91.2535 24.0107 91.7655 23.456C92.2775 22.88 92.7788 22.112 93.2695 21.152C93.7815 20.1707 94.2508 19.072 94.6775 17.856C95.1042 16.6187 95.4455 15.3387 95.7015 14.016C95.9788 12.6933 96.1175 11.4027 96.1175 10.144C96.1175 9.29067 96.0428 8.736 95.8935 8.48C95.7442 8.224 95.5522 8.096 95.3175 8.096ZM84.7255 19.584C84.7255 18.5813 84.8642 17.5253 85.1415 16.416C85.4188 15.3067 85.8348 14.2293 86.3895 13.184C86.9442 12.1173 87.6482 11.1573 88.5015 10.304C89.3762 9.42934 90.3895 8.736 91.5415 8.224C92.6935 7.712 94.0055 7.456 95.4775 7.456C97.2268 7.456 98.5708 7.91467 99.5095 8.832C100.448 9.74934 100.918 11.072 100.918 12.8C100.918 13.8027 100.779 14.8587 100.502 15.968C100.224 17.0773 99.8082 18.1653 99.2535 19.232C98.6988 20.2773 97.9842 21.2373 97.1095 22.112C96.2562 22.9653 95.2535 23.648 94.1015 24.16C92.9495 24.672 91.6375 24.928 90.1655 24.928C88.4162 24.928 87.0722 24.4693 86.1335 23.552C85.1948 22.6347 84.7255 21.312 84.7255 19.584ZM107.189 24.48H102.101L106.005 10.624C106.154 10.0907 106.197 9.71734 106.133 9.504C106.09 9.26934 105.941 9.152 105.685 9.152C105.322 9.152 104.991 9.32267 104.693 9.664C104.394 9.984 104.085 10.5707 103.765 11.424L103.093 13.216H102.485L103.381 10.752C103.679 9.92 104.053 9.26934 104.501 8.8C104.949 8.30934 105.471 7.968 106.069 7.776C106.666 7.56267 107.295 7.456 107.957 7.456C108.661 7.456 109.205 7.59467 109.589 7.872C109.994 8.128 110.271 8.48 110.421 8.928C110.591 9.376 110.666 9.86667 110.645 10.4C110.645 10.912 110.581 11.424 110.453 11.936L107.189 24.48ZM115.381 8.128C114.954 8.128 114.506 8.224 114.037 8.416C113.567 8.608 113.077 9.00267 112.565 9.6C112.053 10.1973 111.509 11.0827 110.933 12.256C110.378 13.408 109.791 14.9547 109.173 16.896C108.554 18.816 107.914 21.216 107.253 24.096L107.957 19.68C108.618 17.2693 109.215 15.2853 109.749 13.728C110.303 12.1493 110.847 10.9013 111.381 9.984C111.935 9.04534 112.533 8.39467 113.173 8.032C113.813 7.648 114.549 7.456 115.381 7.456C116.298 7.456 117.002 7.73334 117.493 8.288C117.983 8.82134 118.229 9.49334 118.229 10.304C118.229 10.944 118.079 11.552 117.781 12.128C117.503 12.6827 117.109 13.1307 116.597 13.472C116.106 13.792 115.541 13.952 114.901 13.952C114.197 13.952 113.653 13.7707 113.269 13.408C112.906 13.0453 112.725 12.512 112.725 11.808C112.725 11.232 112.863 10.6987 113.141 10.208C113.418 9.696 113.791 9.26934 114.261 8.928C114.73 8.56534 115.242 8.33067 115.797 8.224C115.733 8.20267 115.669 8.18134 115.605 8.16C115.541 8.13867 115.466 8.128 115.381 8.128ZM121.61 17.664C122.399 17.3227 123.156 16.9387 123.882 16.512C124.607 16.064 125.247 15.584 125.802 15.072C126.634 14.2827 127.316 13.376 127.85 12.352C128.383 11.3067 128.65 10.1867 128.65 8.992C128.65 8.62934 128.607 8.384 128.522 8.256C128.436 8.128 128.308 8.064 128.138 8.064C127.69 8.064 127.199 8.30934 126.666 8.8C126.132 9.26934 125.61 9.90934 125.098 10.72C124.586 11.5093 124.116 12.416 123.69 13.44C123.284 14.4427 122.954 15.488 122.698 16.576C122.442 17.6427 122.314 18.688 122.314 19.712C122.314 20.928 122.548 21.7493 123.018 22.176C123.508 22.6027 124.138 22.816 124.906 22.816C125.396 22.816 126.068 22.6453 126.922 22.304C127.775 21.9413 128.618 21.3013 129.45 20.384L129.962 20.64C129.514 21.344 128.916 22.0267 128.17 22.688C127.423 23.3493 126.548 23.8933 125.546 24.32C124.543 24.7253 123.434 24.928 122.218 24.928C121.236 24.928 120.34 24.7573 119.53 24.416C118.74 24.0747 118.111 23.5733 117.642 22.912C117.172 22.2293 116.938 21.3973 116.938 20.416C116.938 19.2213 117.13 18.016 117.514 16.8C117.898 15.584 118.442 14.4213 119.146 13.312C119.85 12.1813 120.692 11.1787 121.674 10.304C122.676 9.42934 123.775 8.736 124.97 8.224C126.164 7.712 127.455 7.456 128.842 7.456C129.866 7.456 130.73 7.68 131.434 8.128C132.138 8.55467 132.49 9.22667 132.49 10.144C132.49 10.9547 132.266 11.7227 131.818 12.448C131.37 13.152 130.762 13.8027 129.994 14.4C129.247 14.9973 128.394 15.5307 127.434 16C126.495 16.4693 125.524 16.8747 124.522 17.216C123.519 17.5573 122.538 17.824 121.578 18.016L121.61 17.664Z" fill="white"/>
</svg>
